<svg width="22" height="23" viewBox="0 0 22 23" fill="none" xmlns="http://www.w3.org/2000/svg">
<path d="M14.6732 16.2001C14.6732 19.4084 13.3898 20.6917 10.1815 20.6917H6.33151C3.12318 20.6917 1.83984 19.4084 1.83984 16.2001V12.3501C1.83984 9.14173 3.12318 7.8584 6.33151 7.8584H10.1815C13.3898 7.8584 14.6732 9.14173 14.6732 12.3501V16.2001Z" stroke="white" stroke-width="1.5" stroke-linecap="round" stroke-linejoin="round"/>
<path d="M7.33984 7.8584V6.85006C7.33984 3.64173 8.62318 2.3584 11.8315 2.3584H15.6815C18.8898 2.3584 20.1732 3.64173 20.1732 6.85006V10.7001C20.1732 13.9084 18.8898 15.1917 15.6815 15.1917H14.6732" stroke="white" stroke-width="1.5" stroke-linecap="round" stroke-linejoin="round"/>
<path d="M14.6733 12.3501C14.6733 9.14173 13.39 7.8584 10.1816 7.8584" stroke="white" stroke-width="1.375" stroke-linecap="round" stroke-linejoin="round"/>
</svg>
