<svg width="25" height="25" viewBox="0 0 25 25" fill="none" xmlns="http://www.w3.org/2000/svg">
<g clip-path="url(#clip0_7_28)">
<g clip-path="url(#clip1_7_28)">
<path d="M23.1578 3.9044C22.2418 4.5505 21.2276 5.04467 20.1543 5.36788C19.5782 4.70549 18.8126 4.23602 17.961 4.02293C17.1094 3.80985 16.2129 3.86345 15.3928 4.17648C14.5726 4.48951 13.8684 5.04686 13.3753 5.77317C12.8823 6.49947 12.6243 7.35967 12.636 8.23744V9.19396C10.955 9.23755 9.28939 8.86474 7.7874 8.10873C6.28541 7.35273 4.99369 6.237 4.0273 4.86092C4.0273 4.86092 0.201213 13.4696 8.80991 17.2957C6.83998 18.6328 4.49327 19.3034 2.11426 19.2087C10.723 23.9913 21.2447 19.2087 21.2447 8.20875C21.2438 7.94231 21.2182 7.67653 21.1682 7.41483C22.1444 6.45208 22.8333 5.23656 23.1578 3.9044Z" fill="white"/>
</g>
</g>
<defs>
<clipPath id="clip0_7_28">
<rect width="24" height="24" fill="white" transform="translate(0.5 0.5)"/>
</clipPath>
<clipPath id="clip1_7_28">
<rect width="24" height="24" fill="white" transform="translate(0.5 0.5)"/>
</clipPath>
</defs>
</svg>
